<svg width="160" height="160" viewBox="0 0 160 160" fill="none" xmlns="http://www.w3.org/2000/svg">
<rect x="80" y="16" width="8" height="104" fill="#55B3FB"/>
<rect x="72" y="24" width="8" height="88" fill="#55B3FB"/>
<rect width="8" height="72" transform="matrix(-1 0 0 1 72 32)" fill="#55B3FB"/>
<rect width="8" height="56" transform="matrix(-1 0 0 1 64 40)" fill="#55B3FB"/>
<rect x="56" y="40" width="8" height="32" fill="#0082E6"/>
<rect x="64" y="32" width="8" height="32" fill="#0082E6"/>
<rect x="72" y="24" width="8" height="32" fill="#0082E6"/>
<rect x="80" y="16" width="8" height="32" fill="#0082E6"/>
<rect width="8" height="48" transform="matrix(-1 0 0 1 56 48)" fill="#044298"/>
<rect x="56" y="96" width="8" height="8" fill="#0082E6"/>
<rect x="64" y="104" width="8" height="8" fill="#0082E6"/>
<rect x="64" y="112" width="8" height="8" fill="#044298"/>
<rect x="56" y="104" width="8" height="8" fill="#044298"/>
<rect x="40" y="96" width="16" height="8" fill="#044298"/>
<rect x="16" y="96" width="24" height="8" fill="#044298"/>
<rect x="72" y="112" width="8" height="8" fill="#0082E6"/>
<rect x="72" y="120" width="8" height="8" fill="#044298"/>
<rect x="80" y="120" width="8" height="8" fill="#0082E6"/>
<rect x="80" y="128" width="8" height="8" fill="#044298"/>
<rect x="56" y="48" width="8" height="8" fill="#B9DAFF"/>
<rect x="64" y="40" width="8" height="8" fill="#B9DAFF"/>
<rect x="72" y="32" width="8" height="8" fill="#B9DAFF"/>
<rect x="80" y="24" width="8" height="8" fill="#B9DAFF"/>
<rect x="8" y="56" width="8" height="40" fill="#044298"/>
<rect x="16" y="48" width="32" height="48" fill="#55B3FB"/>
<rect x="16" y="48" width="32" height="24" fill="#0082E6"/>
<rect x="24" y="56" width="24" height="8" fill="#B9DAFF"/>
<rect x="96" y="64" width="8" height="32" fill="#FA500F"/>
<rect x="120" y="56" width="8" height="48" fill="#FA500F"/>
<rect x="144" y="48" width="8" height="64" fill="#FA500F"/>
<rect x="112" y="48" width="8" height="8" fill="#FA500F"/>
<rect x="128" y="32" width="8" height="8" fill="#FA500F"/>
<rect x="136" y="40" width="8" height="8" fill="#FA500F"/>
<rect x="128" y="120" width="8" height="8" fill="#FA500F"/>
<rect x="136" y="112" width="8" height="8" fill="#FA500F"/>
<rect x="112" y="104" width="8" height="8" fill="#FA500F"/>
</svg>
